<?xml version="1.0" encoding="UTF-8"?>
<!DOCTYPE svg PUBLIC "-//W3C//DTD SVG 1.1//EN" "http://www.w3.org/Graphics/SVG/1.1/DTD/svg11.dtd">
<!-- Creator: CorelDRAW 2020 (64-Bit) -->
<svg xmlns="http://www.w3.org/2000/svg" xml:space="preserve" width="133.959mm" height="27.5188mm" version="1.1" style="shape-rendering:geometricPrecision; text-rendering:geometricPrecision; image-rendering:optimizeQuality; fill-rule:evenodd; clip-rule:evenodd"
viewBox="0 0 13381.6 2748.95"
 xmlns:xlink="http://www.w3.org/1999/xlink"
 xmlns:xodm="http://www.corel.com/coreldraw/odm/2003">
 <defs>
  <style type="text/css">
   <![CDATA[
    .fil1 {fill:#2185D0}
    .fil0 {fill:#2185D0;fill-rule:nonzero}
   ]]>
  </style>
 </defs>
 <g id="Layer_x0020_1">
  <metadata id="CorelCorpID_0Corel-Layer"/>
  <g id="_1869060192112">
   <path class="fil0" d="M461.67 2089.43l-461.67 -1477.89 431.68 0 233.82 854.36 245.83 -854.36 344.75 0 245.79 848.37 233.85 -848.37 434.66 0 -464.64 1477.89 -359.73 0 -260.8 -902.33 -257.82 902.33 -365.71 0zm2366.65 32.96c-149.87,0 -281.76,-35.48 -395.7,-106.4 -113.9,-70.95 -201.33,-165.38 -262.29,-283.29 -60.96,-117.93 -91.42,-245.83 -91.42,-383.73 0,-139.89 29.96,-268.27 89.93,-385.18 59.95,-116.92 146.86,-210.36 260.8,-280.31 113.9,-69.94 246.82,-104.92 398.67,-104.92 151.9,0 284.32,34.98 397.23,104.92 112.91,69.96 199.83,163.4 260.8,280.31 60.93,116.91 91.41,245.29 91.41,385.18 0,137.9 -30.48,265.8 -91.41,383.73 -60.97,117.9 -148.39,212.33 -262.33,283.29 -113.9,70.91 -245.79,106.4 -395.7,106.4zm0 -356.72c119.92,0 207.38,-39.48 262.33,-118.39 54.94,-78.96 82.42,-178.38 82.42,-298.3 0,-121.9 -26.98,-221.82 -80.94,-299.75 -53.95,-77.97 -141.87,-116.91 -263.81,-116.91 -119.88,0 -207.34,39.44 -262.29,118.39 -54.95,78.92 -82.42,178.38 -82.42,298.26 0,119.92 27.47,219.35 82.42,298.3 54.95,78.92 142.41,118.39 262.29,118.39zm1692.2 -1187.1c97.94,0 193.85,30 287.78,89.93l-194.87 362.74c-51.94,-33.99 -113.91,-50.99 -185.85,-50.99 -195.83,0 -293.77,130.89 -293.77,392.72l0 716.45 -407.7 0 0 -1477.89 410.68 0 0 233.83c32.01,-81.93 83.45,-146.87 154.41,-194.84 70.95,-47.98 147.39,-71.95 229.33,-71.95zm337.21 1510.86l0 -2089.43 407.66 0 0 1154.14 482.65 -542.6 542.6 0 -545.61 563.6 602.55 914.29 -482.62 0 -407.7 -650.52 -191.87 218.85 0 431.67 -407.66 0zm2060.89 -239.8c159.89,19.97 285.79,41.46 377.71,64.44 91.95,22.98 168.89,62.95 230.85,119.92 61.95,56.93 92.9,138.36 92.9,244.3 0,155.89 -62.95,273.3 -188.86,352.22 -125.9,78.96 -293.76,118.43 -503.61,118.43 -217.82,0 -390.17,-41.47 -517.11,-124.42 -126.89,-82.92 -190.35,-198.35 -190.35,-346.24 0,-29.99 3.02,-56.97 9,-80.94l215.83 -107.91c-121.9,-67.95 -182.87,-173.88 -182.87,-317.77 0,-117.9 42.98,-217.82 128.92,-299.75 -77.94,-93.93 -116.92,-205.85 -116.92,-335.75 0,-107.92 27.97,-204.37 83.95,-289.27 55.94,-84.94 131.39,-150.9 226.32,-197.85 94.92,-46.99 198.34,-70.46 310.26,-70.46 125.91,0 238.82,28.97 338.73,86.93l230.85 -197.85 212.82 254.82 -215.83 176.85c37.99,79.94 56.96,163.9 56.96,251.81 0,107.91 -26.48,202.84 -79.45,284.81 -52.97,81.93 -125.91,145.37 -218.85,190.35 -92.91,44.96 -197.32,67.45 -313.24,67.45 -105.94,0 -200.87,-17.99 -284.81,-53.96 -15.97,19.97 -23.97,41.96 -23.97,65.96 0,45.96 25.99,78.43 77.93,97.41 51.97,19.01 132.92,34.48 242.82,46.49zm-17.99 -932.31c-67.95,0 -121.41,20.5 -160.35,61.46 -38.99,40.97 -58.46,94.43 -58.46,160.39 0,67.95 18.48,123.39 55.44,166.37 36.97,42.94 91.42,64.44 163.37,64.44 69.97,0 122.93,-21.5 158.9,-64.44 35.97,-42.98 53.96,-98.42 53.96,-166.37 0,-67.98 -18.98,-121.94 -56.97,-161.88 -37.96,-39.98 -89.93,-59.98 -155.89,-59.98zm44.96 1531.84c83.95,0 149.91,-9.98 197.86,-29.99 47.97,-19.97 71.94,-48.97 71.94,-86.92 0,-41.97 -25.46,-71.45 -76.45,-88.45 -50.95,-16.96 -130.4,-32.48 -238.32,-46.46 -11.97,0 -31.97,-1.98 -59.95,-5.98 -19.97,-2.02 -54.94,-7 -104.91,-15l-107.91 104.94c-2.02,4.01 -3.01,10.98 -3.01,20.96 0,47.98 29.49,84.45 88.45,109.44 58.95,24.96 136.38,37.46 232.29,37.46zm1620.26 -1870.58c97.94,0 193.85,30 287.78,89.93l-194.87 362.74c-51.94,-33.99 -113.91,-50.99 -185.85,-50.99 -195.83,0 -293.77,130.89 -293.77,392.72l0 716.45 -407.69 0 0 -1477.89 410.67 0 0 233.83c32.01,-81.93 83.45,-146.87 154.41,-194.84 70.95,-47.98 147.39,-71.95 229.33,-71.95zm876.76 1543.82c-149.87,0 -281.76,-35.48 -395.7,-106.4 -113.9,-70.95 -201.32,-165.38 -262.29,-283.29 -60.96,-117.93 -91.42,-245.83 -91.42,-383.73 0,-139.89 29.96,-268.27 89.93,-385.18 59.95,-116.92 146.86,-210.36 260.8,-280.31 113.91,-69.94 246.82,-104.92 398.67,-104.92 151.9,0 284.32,34.98 397.23,104.92 112.91,69.96 199.83,163.4 260.8,280.31 60.93,116.91 91.41,245.29 91.41,385.18 0,137.9 -30.48,265.8 -91.41,383.73 -60.97,117.9 -148.39,212.33 -262.33,283.29 -113.9,70.91 -245.79,106.4 -395.7,106.4zm0 -356.72c119.92,0 207.38,-39.48 262.33,-118.39 54.95,-78.96 82.42,-178.38 82.42,-298.3 0,-121.9 -26.98,-221.82 -80.94,-299.75 -53.95,-77.97 -141.87,-116.91 -263.81,-116.91 -119.88,0 -207.34,39.44 -262.29,118.39 -54.95,78.92 -82.42,178.38 -82.42,298.26 0,119.92 27.47,219.35 82.42,298.3 54.95,78.92 142.41,118.39 262.29,118.39zm2228.82 -1154.14l0 1477.89 -407.7 0 0 -158.87c-49.96,65.93 -111.92,114.4 -185.88,145.38 -73.93,30.98 -153.88,46.45 -239.8,46.45 -181.85,0 -317.27,-54.45 -406.18,-163.37 -88.95,-108.91 -133.42,-252.3 -133.42,-430.18l0 -917.31 404.7 0 0 827.38c0,91.95 16,169.38 47.97,232.33 31.98,62.95 101.9,94.43 209.83,94.43 93.93,0 162.9,-28.96 206.84,-86.92 43.97,-57.97 70.95,-128.42 80.93,-211.34 10.03,-82.95 15.01,-193.35 15.01,-331.26l0 -524.62 407.7 0zm1095.61 -32.96c129.9,0 240.83,33.46 332.74,100.41 91.95,66.96 161.92,158.91 209.86,275.82 47.97,116.92 71.94,249.29 71.94,397.19 0,159.86 -26.98,297.77 -80.94,413.69 -53.95,115.92 -127.38,204.33 -220.32,265.3 -92.94,60.97 -197.36,91.42 -313.28,91.42 -77.93,0 -153.38,-14.97 -226.32,-44.97 -72.93,-29.95 -132.38,-69.93 -178.38,-119.88l0 743.43 -407.66 0 0 -2089.43 407.66 0 0 125.91c50,-53.95 110.93,-93.93 182.87,-119.88 71.94,-25.99 145.91,-38.99 221.82,-38.99zm-107.91 1187.1c211.86,0 317.77,-138.9 317.77,-416.7 0,-275.78 -103.92,-413.69 -311.76,-413.69 -119.92,0 -206.84,36.97 -260.8,110.93 -53.96,73.93 -80.93,174.87 -80.93,302.76 0,125.91 27.47,226.85 82.42,302.8 54.95,75.94 139.39,113.9 253.3,113.9z"/>
   <polygon class="fil1" points="6379.77,2196.78 495.23,2196.78 582.12,2474.97 6379.77,2474.97 "/>
  </g>
 </g>
</svg>
