<?xml version="1.0" encoding="UTF-8"?>
<!DOCTYPE svg PUBLIC "-//W3C//DTD SVG 1.1//EN" "http://www.w3.org/Graphics/SVG/1.1/DTD/svg11.dtd">
<!-- Creator: CorelDRAW 2020 (64-Bit) -->
<svg xmlns="http://www.w3.org/2000/svg" xml:space="preserve" width="78.407mm" height="13.7613mm" version="1.1" style="shape-rendering:geometricPrecision; text-rendering:geometricPrecision; image-rendering:optimizeQuality; fill-rule:evenodd; clip-rule:evenodd"
viewBox="0 0 7826.47 1373.63"
 xmlns:xlink="http://www.w3.org/1999/xlink"
 xmlns:xodm="http://www.corel.com/coreldraw/odm/2003">
 <defs>
  <style type="text/css">
   <![CDATA[
    .fil0 {fill:#0582CA;fill-rule:nonzero}
   ]]>
  </style>
 </defs>
 <g id="Layer_x0020_1">
  <metadata id="CorelCorpID_0Corel-Layer"/>
  <polygon class="fil0" points="308.52,1075.32 555.29,1075.32 746.38,432.02 754.65,432.02 945.74,1075.32 1193,1075.32 1501.03,14.34 1218.28,14.34 1057.58,711.13 1048.82,711.13 866,14.34 635.04,14.34 452.21,709.67 443.21,709.67 283.23,14.34 -0,14.34 "/>
  <path id="1" class="fil0" d="M1839.29 1090.4c250.18,0 401.88,-165.32 401.88,-410.38 0,-245.55 -151.7,-410.63 -401.88,-410.63 -250.18,0 -401.88,165.08 -401.88,410.63 0,245.06 151.7,410.38 401.88,410.38zm1.46 -191.09c-93.6,0 -145.39,-89.23 -145.39,-220.76 0,-132.01 51.79,-221.73 145.39,-221.73 90.69,0 142.47,89.72 142.47,221.73 0,131.53 -51.79,220.76 -142.47,220.76z"/>
  <path id="2" class="fil0" d="M2321.49 1075.32l253.33 0 0 -432.02c0,-94.82 67.35,-158.52 158.03,-158.52 30.15,0 75.12,5.11 99.43,13.38l0 -220.02c-21.15,-5.84 -47.65,-9.48 -70.99,-9.48 -87.03,0 -156.33,50.81 -185.5,156.08l-8.26 0 0 -145.14 -246.03 0 0 795.73z"/>
  <polygon id="3" class="fil0" points="2886.09,1075.32 3139.42,1075.32 3139.42,836.58 3190.72,774.34 3380.35,1075.32 3673.07,1075.32 3379.38,626.28 3661.64,279.59 3374.76,279.59 3150.85,564.52 3139.42,564.52 3139.42,14.34 2886.09,14.34 "/>
  <path id="4" class="fil0" d="M4771.65 1075.32l253.33 0 0 -432.02c0,-94.82 67.35,-158.52 158.03,-158.52 30.15,0 75.12,5.11 99.43,13.38l0 -220.02c-21.15,-5.84 -47.65,-9.48 -70.99,-9.48 -87.03,0 -156.33,50.81 -185.5,156.08l-8.26 0 0 -145.14 -246.03 0 0 795.73z"/>
  <path id="5" class="fil0" d="M5666.41 1090.4c250.18,0 401.88,-165.32 401.88,-410.38 0,-245.55 -151.7,-410.63 -401.88,-410.63 -250.18,0 -401.88,165.08 -401.88,410.63 0,245.06 151.7,410.38 401.88,410.38zm1.46 -191.09c-93.6,0 -145.39,-89.23 -145.39,-220.76 0,-132.01 51.79,-221.73 145.39,-221.73 90.69,0 142.47,89.72 142.47,221.73 0,131.53 -51.79,220.76 -142.47,220.76z"/>
  <path id="6" class="fil0" d="M6662.07 731.8c0,92.87 -59.07,144.66 -134.21,144.66 -77.8,0 -125.44,-53 -125.93,-139.32l0 -457.55 -253.33 0 0 507.15c0.48,179.91 109.89,299.04 273.5,299.04 119.13,0 207.87,-61.26 243.13,-158.51l8.26 0 0 148.06 241.42 0 0 -795.73 -252.85 0 0 452.21z"/>
  <path id="7" class="fil0" d="M7026.11 1373.63l253.33 0 0 -427.4 5.1 0c32.34,73.67 103.82,140.52 223.92,140.52 176.02,0 318,-137.85 318,-408.69 0,-280.81 -150.26,-408.69 -316.54,-408.69 -125.7,0 -194.75,73.42 -225.38,146.6l-7.54 0 0 -136.39 -250.89 0 0 1094.04zm248.22 -696.05c0,-130.07 53.73,-210.3 146.6,-210.3 93.85,0 145.64,82.17 145.64,210.3 0,128.37 -51.79,211.75 -145.64,211.75 -92.87,0 -146.6,-82.9 -146.6,-211.75z"/>
  <path id="8" class="fil0" d="M4399.35 361.03l259.41 0c-25.76,-211.52 -214.43,-361.03 -459.98,-361.03 -283.23,0 -507.15,199.36 -507.15,546.54 0,335.51 206.17,543.37 510.31,543.37 273.02,0 468.25,-169.45 468.25,-454.39l0 -140.27 -457.31 0 0 186.96 210.3 0c-2.68,111.84 -80.23,182.83 -219.05,182.83 -159,0 -250.9,-117.68 -250.9,-321.66 0,-202.51 97,-318.73 250.9,-318.73 102.59,0 172.38,50.33 195.22,136.39z"/>
 </g>
</svg>
